<svg width="39" height="38" viewBox="0 0 39 38" fill="none" xmlns="http://www.w3.org/2000/svg">
<path d="M11.6016 31.2948C11.4753 31.2948 11.3542 31.2673 11.2408 31.2148C10.9573 31.0797 10.7717 30.7945 10.7717 30.4869V7.01638C10.7717 6.57364 11.1454 6.21094 11.6016 6.21094H27.7219C28.1806 6.21094 28.5543 6.57364 28.5543 7.01638V30.4869C28.5543 30.7945 28.3687 31.0797 28.0827 31.2123C27.9693 31.2648 27.8481 31.2923 27.7219 31.2923C27.5337 31.2923 27.3507 31.2298 27.2038 31.1147L19.663 25.2615L12.1222 31.1172C11.9753 31.2298 11.7897 31.2948 11.6016 31.2948ZM19.663 23.423C19.8511 23.423 20.0341 23.4855 20.181 23.6005L26.892 28.8109V7.82183H12.434V28.8084L19.145 23.598C19.2919 23.4855 19.4749 23.423 19.663 23.423Z" fill="#13A6BA"/>
</svg>
