<svg width="63" height="42" viewBox="0 0 63 42" fill="none" xmlns="http://www.w3.org/2000/svg">
<path d="M46.9668 25.1396V24.5516H47.3588C47.6761 24.5516 47.9468 24.4956 48.1708 24.3836C48.3948 24.2623 48.5068 23.9823 48.5068 23.5436V22.3956H44.1948V21.8216L48.5208 15.1436H49.8508V21.6116H51.5868V22.3956H49.8508V23.5436C49.8508 23.9823 49.9628 24.2623 50.1868 24.3836C50.4108 24.4956 50.6815 24.5516 50.9988 24.5516H51.1808V25.1396H46.9668ZM45.2028 21.6116H48.5068V19.0216C48.5068 18.751 48.5068 18.4476 48.5068 18.1116C48.5161 17.7663 48.5301 17.421 48.5488 17.0756C48.5675 16.7303 48.5861 16.413 48.6048 16.1236C48.5581 16.217 48.4835 16.357 48.3808 16.5436C48.2781 16.7303 48.1615 16.9356 48.0308 17.1596C47.9001 17.3743 47.7741 17.5843 47.6528 17.7896C47.5315 17.9856 47.4288 18.149 47.3448 18.2796L45.2028 21.6116ZM55.6971 25.2796C54.9318 25.2796 54.3064 25.065 53.8211 24.6356C53.3358 24.2063 52.9764 23.6043 52.7431 22.8296C52.5191 22.055 52.4071 21.1496 52.4071 20.1136C52.4071 19.0776 52.5191 18.177 52.7431 17.4116C52.9764 16.6463 53.3358 16.0536 53.8211 15.6336C54.3064 15.2136 54.9364 15.0036 55.7111 15.0036C56.4391 15.0036 57.0458 15.2136 57.5311 15.6336C58.0164 16.0536 58.3758 16.651 58.6091 17.4256C58.8518 18.191 58.9731 19.0916 58.9731 20.1276C58.9731 21.1636 58.8518 22.069 58.6091 22.8436C58.3664 23.609 58.0024 24.2063 57.5171 24.6356C57.0411 25.065 56.4344 25.2796 55.6971 25.2796ZM55.6971 24.5236C56.3784 24.5236 56.8498 24.1363 57.1111 23.3616C57.3818 22.587 57.5171 21.509 57.5171 20.1276C57.5171 18.737 57.3818 17.6636 57.1111 16.9076C56.8498 16.1423 56.3831 15.7596 55.7111 15.7596C55.0298 15.7596 54.5491 16.1423 54.2691 16.9076C53.9984 17.6636 53.8631 18.737 53.8631 20.1276C53.8631 21.509 53.9984 22.587 54.2691 23.3616C54.5398 24.1363 55.0158 24.5236 55.6971 24.5236Z" fill="#677071"/>
<path d="M25.0845 23.5114L29.9693 18.3392L25.0845 13.167" stroke="#CCCFD0" stroke-width="1.7" stroke-linecap="round" stroke-linejoin="round"/>
<path d="M26.7128 30.4078H11.2441C11.0282 30.4078 10.8211 30.317 10.6684 30.1553C10.5157 29.9937 10.4299 29.7744 10.4299 29.5458V16.6152" stroke="#CCCFD0" stroke-width="1.7" stroke-linecap="round" stroke-linejoin="round"/>
<path d="M14.8083 26.0972C15.3506 23.8766 16.5741 21.9097 18.2868 20.5054C19.9994 19.1011 22.1041 18.339 24.2703 18.3389H29.9693" stroke="#CCCFD0" stroke-width="1.7" stroke-linecap="round" stroke-linejoin="round"/>
</svg>
