<svg width="72" height="42" viewBox="0 0 72 42" fill="none" xmlns="http://www.w3.org/2000/svg">
<path d="M45.2905 25.1396V24.5516H46.2285C46.5459 24.5516 46.8165 24.4956 47.0405 24.3836C47.2645 24.2623 47.3765 23.9823 47.3765 23.5436V16.1936C47.0219 16.623 46.6999 16.973 46.4105 17.2436C46.1305 17.5143 45.8505 17.6496 45.5705 17.6496C45.3652 17.6496 45.1972 17.5796 45.0665 17.4396C44.9359 17.2996 44.8705 17.1176 44.8705 16.8936C45.1505 16.819 45.4445 16.707 45.7525 16.5576C46.0699 16.4083 46.4572 16.161 46.9145 15.8156L47.8945 15.0876H48.7905V23.5436C48.7905 23.9823 48.9025 24.2623 49.1265 24.3836C49.3505 24.4956 49.6212 24.5516 49.9385 24.5516H50.6245V25.1396H45.2905ZM55.6868 25.2796C54.9215 25.2796 54.2962 25.065 53.8108 24.6356C53.3255 24.2063 52.9662 23.6043 52.7328 22.8296C52.5088 22.055 52.3968 21.1496 52.3968 20.1136C52.3968 19.0776 52.5088 18.177 52.7328 17.4116C52.9662 16.6463 53.3255 16.0536 53.8108 15.6336C54.2962 15.2136 54.9262 15.0036 55.7008 15.0036C56.4288 15.0036 57.0355 15.2136 57.5208 15.6336C58.0062 16.0536 58.3655 16.651 58.5988 17.4256C58.8415 18.191 58.9628 19.0916 58.9628 20.1276C58.9628 21.1636 58.8415 22.069 58.5988 22.8436C58.3562 23.609 57.9922 24.2063 57.5068 24.6356C57.0308 25.065 56.4242 25.2796 55.6868 25.2796ZM55.6868 24.5236C56.3682 24.5236 56.8395 24.1363 57.1008 23.3616C57.3715 22.587 57.5068 21.509 57.5068 20.1276C57.5068 18.737 57.3715 17.6636 57.1008 16.9076C56.8395 16.1423 56.3728 15.7596 55.7008 15.7596C55.0195 15.7596 54.5388 16.1423 54.2588 16.9076C53.9882 17.6636 53.8528 18.737 53.8528 20.1276C53.8528 21.509 53.9882 22.587 54.2588 23.3616C54.5295 24.1363 55.0055 24.5236 55.6868 24.5236ZM63.5072 25.2796C62.7418 25.2796 62.1165 25.065 61.6312 24.6356C61.1458 24.2063 60.7865 23.6043 60.5532 22.8296C60.3292 22.055 60.2172 21.1496 60.2172 20.1136C60.2172 19.0776 60.3292 18.177 60.5532 17.4116C60.7865 16.6463 61.1458 16.0536 61.6312 15.6336C62.1165 15.2136 62.7465 15.0036 63.5212 15.0036C64.2492 15.0036 64.8558 15.2136 65.3412 15.6336C65.8265 16.0536 66.1858 16.651 66.4192 17.4256C66.6618 18.191 66.7832 19.0916 66.7832 20.1276C66.7832 21.1636 66.6618 22.069 66.4192 22.8436C66.1765 23.609 65.8125 24.2063 65.3272 24.6356C64.8512 25.065 64.2445 25.2796 63.5072 25.2796ZM63.5072 24.5236C64.1885 24.5236 64.6598 24.1363 64.9212 23.3616C65.1918 22.587 65.3272 21.509 65.3272 20.1276C65.3272 18.737 65.1918 17.6636 64.9212 16.9076C64.6598 16.1423 64.1932 15.7596 63.5212 15.7596C62.8398 15.7596 62.3592 16.1423 62.0792 16.9076C61.8085 17.6636 61.6732 18.737 61.6732 20.1276C61.6732 21.509 61.8085 22.587 62.0792 23.3616C62.3498 24.1363 62.8258 24.5236 63.5072 24.5236Z" fill="#677071"/>
<path d="M14.4941 22.6353L10.498 26.0558V12.3737C10.498 12.1469 10.5831 11.9294 10.7346 11.769C10.8861 11.6086 11.0915 11.5186 11.3057 11.5186H24.2277C24.4418 11.5186 24.6473 11.6086 24.7987 11.769C24.9502 11.9294 25.0353 12.1469 25.0353 12.3737V21.7801C25.0353 22.0069 24.9502 22.2244 24.7987 22.3848C24.6473 22.5452 24.4418 22.6353 24.2277 22.6353H14.4941Z" stroke="#CCCFD0" stroke-width="1.7" stroke-linecap="round" stroke-linejoin="round"/>
<path d="M15.344 22.6353V26.911C15.344 27.1378 15.4291 27.3553 15.5805 27.5157C15.732 27.676 15.9374 27.7661 16.1516 27.7661H25.8852L29.8812 31.1866V17.5045C29.8812 17.2778 29.7961 17.0602 29.6447 16.8999C29.4932 16.7395 29.2878 16.6494 29.0736 16.6494H25.0355" stroke="#CCCFD0" stroke-width="1.7" stroke-linecap="round" stroke-linejoin="round"/>
</svg>
