<svg width="72" height="42" viewBox="0 0 72 42" fill="none" xmlns="http://www.w3.org/2000/svg">
<path d="M46.9458 25.1396V24.5516H47.3378C47.6551 24.5516 47.9258 24.4956 48.1498 24.3836C48.3738 24.2623 48.4858 23.9823 48.4858 23.5436V22.3956H44.1738V21.8216L48.4998 15.1436H49.8298V21.6116H51.5658V22.3956H49.8298V23.5436C49.8298 23.9823 49.9418 24.2623 50.1658 24.3836C50.3898 24.4956 50.6605 24.5516 50.9778 24.5516H51.1598V25.1396H46.9458ZM45.1818 21.6116H48.4858V19.0216C48.4858 18.751 48.4858 18.4476 48.4858 18.1116C48.4951 17.7663 48.5091 17.421 48.5278 17.0756C48.5465 16.7303 48.5651 16.413 48.5838 16.1236C48.5371 16.217 48.4625 16.357 48.3598 16.5436C48.2571 16.7303 48.1405 16.9356 48.0098 17.1596C47.8791 17.3743 47.7531 17.5843 47.6318 17.7896C47.5105 17.9856 47.4078 18.149 47.3238 18.2796L45.1818 21.6116ZM55.2141 25.2796C54.2901 25.2796 53.6181 25.1256 53.1981 24.8176C52.7781 24.5003 52.5681 24.1363 52.5681 23.7256C52.5681 23.4456 52.6474 23.2263 52.8061 23.0676C52.9741 22.909 53.1888 22.8296 53.4501 22.8296C53.4501 23.315 53.6041 23.721 53.9121 24.0476C54.2201 24.365 54.6588 24.5236 55.2281 24.5236C55.6014 24.5236 55.9421 24.4536 56.2501 24.3136C56.5674 24.1643 56.8241 23.9263 57.0201 23.5996C57.2161 23.273 57.3141 22.8296 57.3141 22.2696C57.3141 21.6816 57.0854 21.2103 56.6281 20.8556C56.1801 20.501 55.5641 20.3236 54.7801 20.3236H54.3321V19.6096H54.7801C55.1908 19.6096 55.5594 19.521 55.8861 19.3436C56.2221 19.1663 56.4881 18.9143 56.6841 18.5876C56.8801 18.261 56.9781 17.8783 56.9781 17.4396C56.9781 16.889 56.8614 16.4643 56.6281 16.1656C56.4041 15.8576 56.0214 15.7036 55.4801 15.7036C55.0601 15.7036 54.7381 15.8016 54.5141 15.9976C54.2901 16.1936 54.1361 16.4503 54.0521 16.7676C53.9774 17.0756 53.9401 17.4163 53.9401 17.7896C53.6041 17.7896 53.3194 17.729 53.0861 17.6076C52.8528 17.477 52.7361 17.2343 52.7361 16.8796C52.7361 16.3383 52.9648 15.8903 53.4221 15.5356C53.8888 15.181 54.5748 15.0036 55.4801 15.0036C56.3668 15.0036 57.0761 15.1996 57.6081 15.5916C58.1494 15.9743 58.4201 16.5203 58.4201 17.2296C58.4201 17.6496 58.3221 18.037 58.1261 18.3916C57.9301 18.737 57.6641 19.0356 57.3281 19.2876C56.9921 19.5303 56.6094 19.703 56.1801 19.8056C56.4414 19.8336 56.7214 19.8943 57.0201 19.9876C57.3188 20.0716 57.5988 20.207 57.8601 20.3936C58.1308 20.5803 58.3501 20.8276 58.5181 21.1356C58.6861 21.4343 58.7701 21.817 58.7701 22.2836C58.7701 22.8436 58.6628 23.3196 58.4481 23.7116C58.2334 24.0943 57.9488 24.4023 57.5941 24.6356C57.2394 24.8596 56.8521 25.023 56.4321 25.1256C56.0214 25.2283 55.6154 25.2796 55.2141 25.2796ZM60.4304 25.1396V24.1176L62.7684 21.4156C63.2631 20.837 63.6551 20.3376 63.9444 19.9176C64.2337 19.4883 64.4391 19.0823 64.5604 18.6996C64.6911 18.317 64.7564 17.911 64.7564 17.4816C64.7564 16.9496 64.6397 16.5203 64.4064 16.1936C64.1824 15.867 63.8231 15.7036 63.3284 15.7036C62.9084 15.7036 62.5864 15.8016 62.3624 15.9976C62.1384 16.1936 61.9844 16.4503 61.9004 16.7676C61.8257 17.0756 61.7884 17.4163 61.7884 17.7896C61.4524 17.7896 61.1677 17.729 60.9344 17.6076C60.7011 17.477 60.5844 17.2343 60.5844 16.8796C60.5844 16.3383 60.8131 15.8903 61.2704 15.5356C61.7371 15.181 62.4231 15.0036 63.3284 15.0036C64.2151 15.0036 64.9104 15.2183 65.4144 15.6476C65.9184 16.0676 66.1704 16.6323 66.1704 17.3416C66.1704 17.995 65.9651 18.6343 65.5544 19.2596C65.1437 19.8756 64.5697 20.5896 63.8324 21.4016L61.4664 24.0196H64.7004C65.1204 24.0196 65.4051 23.9123 65.5544 23.6976C65.7037 23.483 65.8111 23.2403 65.8764 22.9696L65.9324 22.7176H66.5204L66.4504 25.1396H60.4304Z" fill="#677071"/>
<path d="M10.4873 18.3604H15.3331V29.4771H10.4873C10.2731 29.4771 10.0677 29.387 9.91624 29.2266C9.76478 29.0662 9.67969 28.8487 9.67969 28.6219V19.2155C9.67969 18.9887 9.76478 18.7712 9.91624 18.6108C10.0677 18.4504 10.2731 18.3604 10.4873 18.3604V18.3604Z" stroke="#CCCFD0" stroke-width="1.7" stroke-linecap="round" stroke-linejoin="round"/>
<path d="M15.333 18.3599L19.3711 9.80859C19.7954 9.80859 20.2154 9.89707 20.6074 10.069C20.9993 10.2409 21.3555 10.4928 21.6554 10.8104C21.9554 11.1281 22.1934 11.5051 22.3557 11.9201C22.5181 12.3351 22.6016 12.7799 22.6016 13.2291V15.7945H28.8481C29.0772 15.7945 29.3036 15.8461 29.5124 15.9458C29.7211 16.0455 29.9075 16.1911 30.0591 16.3729C30.2106 16.5547 30.324 16.7686 30.3915 17.0003C30.4591 17.232 30.4793 17.4763 30.4509 17.7169L29.2395 27.9785C29.1906 28.3921 29.0008 28.7726 28.7057 29.0485C28.4105 29.3244 28.0304 29.4766 27.6367 29.4766H15.333" stroke="#CCCFD0" stroke-width="1.7" stroke-linecap="round" stroke-linejoin="round"/>
</svg>
