<svg width="66" height="67" viewBox="0 0 66 67" fill="none" xmlns="http://www.w3.org/2000/svg">
<path d="M63.61 29.278C63.6031 29.278 63.6031 29.278 63.61 29.278L36.9872 2.40112C35.8542 1.25699 34.3504 0.625977 32.7435 0.625977C31.1367 0.625977 29.6328 1.25699 28.4929 2.40112L1.89763 29.2641C1.89076 29.271 1.87703 29.2849 1.87016 29.2918C-0.457702 31.6564 -0.457702 35.4979 1.88389 37.8555C2.94826 38.9373 4.36283 39.5614 5.86667 39.6238C5.92847 39.6307 5.99027 39.6307 6.05207 39.6307H7.10957V59.407C7.10957 63.3178 10.2615 66.5076 14.1412 66.5076H24.5514C25.6089 66.5076 26.4603 65.6408 26.4603 64.5799V49.0681C26.4603 47.2791 27.9024 45.8298 29.6672 45.8298H35.8061C37.5778 45.8298 39.013 47.2791 39.013 49.0681V64.5729C39.013 65.6408 39.8713 66.5006 40.9219 66.5006H51.3321C55.2119 66.5006 58.3637 63.3178 58.3637 59.4V39.6307H59.3457C60.9525 39.6307 62.4564 38.9997 63.5963 37.8555C65.9447 35.491 65.9447 31.6425 63.61 29.278ZM60.9045 35.1235C60.4925 35.5395 59.9431 35.7684 59.3594 35.7684H56.4616C55.4041 35.7684 54.5526 36.6351 54.5526 37.6961V59.4C54.5526 61.1821 53.1175 62.6383 51.3458 62.6383H42.8447V49.0681C42.8447 45.1572 39.6928 41.9675 35.813 41.9675H29.674C25.7943 41.9675 22.6424 45.1503 22.6424 49.0681V62.6452H14.1412C12.3764 62.6452 10.9344 61.196 10.9344 59.407V37.703C10.9344 36.6351 10.076 35.7753 9.02542 35.7753H6.17568C6.14821 35.7753 6.11387 35.7684 6.08641 35.7684C5.51646 35.7614 4.98084 35.5326 4.58257 35.1235C3.73108 34.2636 3.73108 32.8629 4.58257 32.0031L31.1985 5.13319C31.6105 4.71714 32.1598 4.48831 32.7435 4.48831C33.3272 4.48831 33.8765 4.71714 34.2886 5.13319L60.8976 32.0031C60.9045 32.01 60.9045 32.01 60.9113 32.017C61.7491 32.8699 61.7491 34.2706 60.9045 35.1235Z" fill="#B3C41D"/>
</svg>
