<svg width="56" height="67" viewBox="0 0 56 67" fill="none" xmlns="http://www.w3.org/2000/svg">
<path d="M28.0036 66.4411C27.7171 66.4411 27.4447 66.3847 27.1792 66.2789C10.9909 59.6046 0.538818 43.8927 0.538818 26.2476V13.3648C0.538818 12.4688 1.06981 11.6715 1.88725 11.3258L27.1652 0.728895C27.4307 0.616012 27.7102 0.55957 27.9966 0.55957C28.2831 0.55957 28.5695 0.616012 28.835 0.728895L54.113 11.3258C54.9304 11.6715 55.4614 12.4688 55.4614 13.3648V26.2476C55.4614 43.8927 45.0093 59.6117 28.828 66.2789C28.5625 66.3847 28.2831 66.4411 28.0036 66.4411ZM4.90552 14.8323V26.2405C4.90552 41.6209 13.9114 55.5691 27.8429 61.7706L28.0036 61.8411L28.1643 61.7706C42.0958 55.5691 51.1017 41.628 51.1017 26.2405V14.8323L28.0036 5.15251L4.90552 14.8323ZM25.146 40.9154C24.5661 40.9154 24.0142 40.6826 23.602 40.2663L16.3987 32.9924C15.9864 32.5761 15.7559 32.0188 15.7559 31.4332C15.7559 30.8476 15.9864 30.2902 16.3987 29.874C16.8109 29.4577 17.3628 29.2249 17.9427 29.2249C18.5226 29.2249 19.0746 29.4577 19.4868 29.874L25.153 35.5958L36.5204 24.1169C36.9326 23.7007 37.4846 23.4678 38.0645 23.4678C38.6444 23.4678 39.1963 23.7007 39.6085 24.1169C40.0208 24.5332 40.2513 25.0905 40.2513 25.6761C40.2513 26.2617 40.0208 26.8191 39.6085 27.2353L26.6901 40.2663C26.2779 40.6826 25.7329 40.9154 25.146 40.9154Z" fill="#B3C41D"/>
</svg>
