<svg width="69" height="70" viewBox="0 0 69 70" fill="none" xmlns="http://www.w3.org/2000/svg">
<path d="M33.2354 61.2286C31.819 60.0872 30.5661 58.76 29.5038 57.2748C28.9113 56.4496 27.7673 56.2639 26.9502 56.8553C26.133 57.4535 25.9492 58.6088 26.5348 59.4339C27.7878 61.1874 29.2722 62.7689 30.9474 64.1167C31.2674 64.378 31.676 64.5224 32.0846 64.5224C32.643 64.5224 33.1673 64.2679 33.5146 63.8279C34.1547 63.0302 34.0253 61.8612 33.2354 61.2286Z" fill="#B3C41D"/>
<path d="M55.4414 28.3185C57.0076 29.2331 58.4444 30.3608 59.711 31.6742C60.0583 32.0317 60.5213 32.2311 61.0184 32.2311C61.5019 32.2311 61.9513 32.0455 62.2918 31.7085C63.0136 31.0003 63.0272 29.8244 62.3258 29.0956C60.8277 27.5415 59.1253 26.2075 57.2731 25.1279C56.4015 24.6191 55.278 24.9216 54.7741 25.8018C54.5289 26.2281 54.4608 26.7232 54.5902 27.2046C54.7128 27.679 55.0124 28.071 55.4414 28.3185Z" fill="#B3C41D"/>
<path d="M62.925 36.0684C63.7898 37.6775 64.4368 39.3897 64.8385 41.1706C65.0292 42.0164 65.7646 42.6078 66.6226 42.6078C66.7588 42.6078 66.895 42.594 67.0312 42.5596C68.0118 42.3327 68.6314 41.3425 68.4067 40.3523C67.93 38.2413 67.1674 36.2059 66.1391 34.3012C65.9076 33.868 65.5195 33.5517 65.0496 33.4142C64.5798 33.2766 64.0895 33.3316 63.6605 33.5654C63.2315 33.7992 62.9182 34.1912 62.782 34.6656C62.6458 35.1401 62.6867 35.6352 62.925 36.0684Z" fill="#B3C41D"/>
<path d="M43.1025 65.4298C41.3047 65.2029 39.5479 64.7284 37.8796 64.0201C36.9535 63.6213 35.8775 64.0683 35.4826 65.0035C35.0876 65.9386 35.5303 67.0251 36.4564 67.4239C38.4311 68.2628 40.5148 68.8267 42.6462 69.0949C42.7211 69.1017 42.796 69.1086 42.8709 69.1086C43.7902 69.1086 44.5733 68.4141 44.6823 67.4927C44.7436 67.0045 44.6074 66.5162 44.3077 66.1312C44.0081 65.7461 43.5859 65.4917 43.1025 65.4298Z" fill="#B3C41D"/>
<path d="M26.9776 52.4475C26.3919 50.8247 26.0174 49.1194 25.8676 47.3866C37.0761 46.472 46.0442 37.6154 47.2495 26.3795L47.2563 26.3864L47.2768 26.1732C47.2904 26.0288 47.304 25.8844 47.3176 25.7331C48.3731 25.8294 49.4218 26.0082 50.4432 26.2695C50.9199 26.3933 51.4102 26.3176 51.8255 26.0632C52.2477 25.8088 52.5405 25.4099 52.6631 24.9286C52.7857 24.4541 52.7108 23.9522 52.4656 23.5327C52.2137 23.1064 51.8187 22.8107 51.3421 22.6869C50.0346 22.35 48.6932 22.13 47.3312 22.0337C46.412 9.72512 36.2385 0.15332 23.9609 0.15332C11.0432 0.15332 0.536133 10.7634 0.536133 23.8078C0.536133 36.2195 10.0082 46.4789 22.1973 47.3935C22.3539 49.5526 22.8101 51.6774 23.5387 53.7059C23.8043 54.4348 24.4921 54.923 25.2547 54.923C25.4658 54.923 25.6769 54.8886 25.8812 54.813C26.8346 54.4623 27.318 53.4033 26.9776 52.4475ZM22.2109 43.694C12.0647 42.7932 4.19285 34.1566 4.19285 23.8078C4.19285 12.7988 13.0589 3.84589 23.9609 3.84589C34.2093 3.84589 42.7621 11.7949 43.6541 22.0406C32.2277 22.9757 23.137 32.1556 22.2109 43.694ZM25.8812 43.6803C26.7869 34.2254 34.2774 26.6683 43.6405 25.7469C42.728 35.2018 35.2443 42.7588 25.8812 43.6803Z" fill="#B3C41D"/>
<path d="M68.4816 45.4615C68.1547 45.097 67.7053 44.8839 67.215 44.8564C66.7179 44.8289 66.2617 45.0008 65.9008 45.3308C65.5399 45.6609 65.3288 46.1147 65.3015 46.6098C65.213 48.4389 64.8794 50.2474 64.3005 51.9733C63.9805 52.936 64.498 53.9881 65.4514 54.3113C65.642 54.3732 65.8395 54.4075 66.0302 54.4075C66.8133 54.4075 67.5147 53.8987 67.7598 53.1492C68.4407 51.1 68.8357 48.9615 68.9447 46.7886C68.9787 46.3004 68.8153 45.8259 68.4816 45.4615Z" fill="#B3C41D"/>
<path d="M64.4367 56.3734C63.606 55.8027 62.4688 56.0159 61.8968 56.8548C60.8753 58.3607 59.6564 59.7291 58.2673 60.9049C57.8927 61.2212 57.6612 61.6682 57.6204 62.1564C57.5795 62.6446 57.7293 63.126 58.0426 63.5042C58.3898 63.9236 58.9006 64.1643 59.4453 64.1643C59.8743 64.1643 60.2897 64.013 60.6234 63.7311C62.2645 62.3352 63.7081 60.7261 64.9202 58.9383C65.4854 58.0994 65.2743 56.9511 64.4367 56.3734Z" fill="#B3C41D"/>
<path d="M53.6911 63.8213C52.0432 64.5708 50.3 65.0934 48.5091 65.3616C48.0256 65.4372 47.6034 65.6916 47.3106 66.0905C47.0178 66.4893 46.902 66.9706 46.9701 67.4589C47.1063 68.3528 47.8826 69.0335 48.7747 69.0335C48.8632 69.0335 48.9517 69.0266 49.047 69.0129C51.1716 68.6897 53.2417 68.0777 55.196 67.1838C55.6387 66.9775 55.9791 66.6131 56.1562 66.1524C56.3264 65.6916 56.3128 65.1897 56.1085 64.7427C55.7 63.8144 54.6172 63.4018 53.6911 63.8213Z" fill="#B3C41D"/>
<path d="M14.4208 9.58118C13.9373 9.52617 13.4606 9.6637 13.0793 9.97313C8.87102 13.3425 6.46045 18.3897 6.46045 23.8082C6.46045 24.8259 7.27759 25.6511 8.2854 25.6511C9.29321 25.6511 10.1104 24.8259 10.1104 23.8082C10.1104 19.5243 12.017 15.5292 15.3469 12.8612C15.7282 12.5517 15.9734 12.1185 16.0278 11.6234C16.0823 11.1352 15.9461 10.6539 15.6397 10.2619C15.3333 9.86999 14.9111 9.6362 14.4208 9.58118Z" fill="#B3C41D"/>
<path d="M23.9608 6.13574C22.3129 6.13574 20.6786 6.36954 19.1056 6.82337C18.1386 7.1053 17.5734 8.12987 17.8526 9.1063C18.0773 9.8902 18.7992 10.4403 19.6095 10.4403C19.7797 10.4403 19.95 10.4128 20.1202 10.3647C21.3595 10.0002 22.6534 9.82144 23.9608 9.82144C24.9686 9.82144 25.7857 8.99628 25.7857 7.97859C25.7857 6.9609 24.9686 6.13574 23.9608 6.13574Z" fill="#B3C41D"/>
</svg>
